M48
METRIC,LZ,000.000
;FILE_FORMAT=3:3
;TYPE=PLATED
;Layer: PTH_Through
;EasyEDA v6.5.38, 2023-11-18 20:37:54
;b8ba80685cd040f094fae154fa66d560,1f58bdd708a443c08c5fadb9c6478ee0,10
;Gerber Generator version 0.2
;Holesize 1 = 0.310 mm
T01C0.310
;Holesize 2 = 1.101 mm
T02C1.101
;Holesize 3 = 1.200 mm
T03C1.200
%
G05
G90
T01
X021590Y066802
X041529Y021082
X038100Y054864
X038100Y056769
X041529Y023622
X011430Y026670
X019050Y062992
X016764Y062992
X015113Y059182
X015113Y057658
X031750Y062992
X029464Y062992
X027813Y059182
X027813Y057658
X044450Y062992
X042164Y062992
X040513Y059182
X040513Y057658
T02
X050800Y049784
X050800Y047244
X050800Y044704
X050800Y042164
X050800Y039624
X050800Y037084
X050800Y034544
X050800Y032004
X050800Y029464
X050800Y026924
X050800Y022860
X050800Y020320
X050800Y017780
X050800Y015240
X050800Y012700
X050800Y010160
X050800Y007620
X050800Y005080
X002540Y005080
X002540Y007620
X002540Y010160
X002540Y012700
X002540Y015240
X002540Y017780
X002540Y022860
X002540Y025400
X002540Y027940
X002540Y030480
X002540Y033020
X002540Y035560
X002540Y038100
X002540Y040640
X006350Y041910
X006350Y039370
X006350Y036830
X006350Y034290
X006350Y031750
X006350Y029210
X006350Y026670
X006350Y024130
X006350Y019050
X006350Y016510
X006350Y013970
X006350Y011430
X006350Y008890
X006350Y006350
X046990Y005080
X046990Y007620
X046990Y010160
X046990Y012700
X046990Y015240
X046990Y017780
X046990Y020320
X046990Y022860
X046990Y026924
X046990Y029464
X046990Y032004
X046990Y034544
X046990Y037084
X046990Y039624
X046990Y042164
X046990Y044704
X046990Y047244
X046990Y049784
T03
X022860Y060960
X020320Y060960
X017780Y060960
X022860Y066040
X020320Y066040
X017780Y066040
X035560Y060960
X033020Y060960
X030480Y060960
X035560Y066040
X033020Y066040
X030480Y066040
X048260Y066040
X045720Y066040
X043180Y066040
X048260Y060960
X045720Y060960
X043180Y060960
X010160Y066040
X007620Y066040
X005080Y066040
X010160Y060960
X007620Y060960
X005080Y060960
X022860Y021590
X020320Y021590
X017780Y021590
X035560Y021590
X033020Y021590
X030480Y021590
X035560Y011430
X033020Y011430
X030480Y011430
X022860Y011430
X020320Y011430
X017780Y011430
M30
