G04 Layer: BottomSilkscreenLayer*
G04 EasyEDA v6.5.38, 2023-11-18 20:37:54*
G04 b8ba80685cd040f094fae154fa66d560,1f58bdd708a443c08c5fadb9c6478ee0,10*
G04 Gerber Generator version 0.2*
G04 Scale: 100 percent, Rotated: No, Reflected: No *
G04 Dimensions in millimeters *
G04 leading zeros omitted , absolute positions ,4 integer and 5 decimal *
%FSLAX45Y45*%
%MOMM*%

%ADD10C,0.2540*%

%LPD*%
D10*
X4952974Y4851400D02*
G01*
X5206974Y4851400D01*
X5206974Y5105400D01*
X4952974Y5105400D01*
X4952974Y4851400D01*
X4952974Y4597400D02*
G01*
X5206974Y4597400D01*
X5206974Y4851400D01*
X4952974Y4851400D01*
X4952974Y4597400D01*
X4952974Y4343400D02*
G01*
X5206974Y4343400D01*
X5206974Y4597400D01*
X4952974Y4597400D01*
X4952974Y4343400D01*
X4952974Y4089400D02*
G01*
X5206974Y4089400D01*
X5206974Y4343400D01*
X4952974Y4343400D01*
X4952974Y4089400D01*
X4952974Y3835400D02*
G01*
X5206974Y3835400D01*
X5206974Y4089400D01*
X4952974Y4089400D01*
X4952974Y3835400D01*
X4952974Y3581400D02*
G01*
X5206974Y3581400D01*
X5206974Y3835400D01*
X4952974Y3835400D01*
X4952974Y3581400D01*
X4952974Y3327400D02*
G01*
X5206974Y3327400D01*
X5206974Y3581400D01*
X4952974Y3581400D01*
X4952974Y3327400D01*
X4952974Y3073400D02*
G01*
X5206974Y3073400D01*
X5206974Y3327400D01*
X4952974Y3327400D01*
X4952974Y3073400D01*
X4952974Y2819400D02*
G01*
X5206974Y2819400D01*
X5206974Y3073400D01*
X4952974Y3073400D01*
X4952974Y2819400D01*
X4952974Y2565400D02*
G01*
X5206974Y2565400D01*
X5206974Y2819400D01*
X4952974Y2819400D01*
X4952974Y2565400D01*
X4952974Y2159000D02*
G01*
X5206974Y2159000D01*
X5206974Y2413000D01*
X4952974Y2413000D01*
X4952974Y2159000D01*
X4952974Y1905000D02*
G01*
X5206974Y1905000D01*
X5206974Y2159000D01*
X4952974Y2159000D01*
X4952974Y1905000D01*
X4952974Y1651000D02*
G01*
X5206974Y1651000D01*
X5206974Y1905000D01*
X4952974Y1905000D01*
X4952974Y1651000D01*
X4952974Y1397000D02*
G01*
X5206974Y1397000D01*
X5206974Y1651000D01*
X4952974Y1651000D01*
X4952974Y1397000D01*
X4952974Y1143000D02*
G01*
X5206974Y1143000D01*
X5206974Y1397000D01*
X4952974Y1397000D01*
X4952974Y1143000D01*
X4952974Y889000D02*
G01*
X5206974Y889000D01*
X5206974Y1143000D01*
X4952974Y1143000D01*
X4952974Y889000D01*
X4952974Y635000D02*
G01*
X5206974Y635000D01*
X5206974Y889000D01*
X4952974Y889000D01*
X4952974Y635000D01*
X4952974Y381000D02*
G01*
X5206974Y381000D01*
X5206974Y635000D01*
X4952974Y635000D01*
X4952974Y381000D01*
X127000Y381000D02*
G01*
X381000Y381000D01*
X381000Y635000D01*
X127000Y635000D01*
X127000Y381000D01*
X127000Y635000D02*
G01*
X381000Y635000D01*
X381000Y889000D01*
X127000Y889000D01*
X127000Y635000D01*
X127000Y889000D02*
G01*
X381000Y889000D01*
X381000Y1143000D01*
X127000Y1143000D01*
X127000Y889000D01*
X127000Y1143000D02*
G01*
X381000Y1143000D01*
X381000Y1397000D01*
X127000Y1397000D01*
X127000Y1143000D01*
X127000Y1397000D02*
G01*
X381000Y1397000D01*
X381000Y1651000D01*
X127000Y1651000D01*
X127000Y1397000D01*
X127000Y1651000D02*
G01*
X381000Y1651000D01*
X381000Y1905000D01*
X127000Y1905000D01*
X127000Y1651000D01*
X127000Y2159000D02*
G01*
X381000Y2159000D01*
X381000Y2413000D01*
X127000Y2413000D01*
X127000Y2159000D01*
X127000Y2413000D02*
G01*
X381000Y2413000D01*
X381000Y2667000D01*
X127000Y2667000D01*
X127000Y2413000D01*
X127000Y2667000D02*
G01*
X381000Y2667000D01*
X381000Y2921000D01*
X127000Y2921000D01*
X127000Y2667000D01*
X127000Y2921000D02*
G01*
X381000Y2921000D01*
X381000Y3175000D01*
X127000Y3175000D01*
X127000Y2921000D01*
X127000Y3175000D02*
G01*
X381000Y3175000D01*
X381000Y3429000D01*
X127000Y3429000D01*
X127000Y3175000D01*
X127000Y3429000D02*
G01*
X381000Y3429000D01*
X381000Y3683000D01*
X127000Y3683000D01*
X127000Y3429000D01*
X127000Y3683000D02*
G01*
X381000Y3683000D01*
X381000Y3937000D01*
X127000Y3937000D01*
X127000Y3683000D01*
X127000Y3937000D02*
G01*
X381000Y3937000D01*
X381000Y4191000D01*
X127000Y4191000D01*
X127000Y3937000D01*
M02*
