G04 Layer: BottomSolderMaskLayer*
G04 EasyEDA v6.5.38, 2023-11-18 20:37:54*
G04 b8ba80685cd040f094fae154fa66d560,1f58bdd708a443c08c5fadb9c6478ee0,10*
G04 Gerber Generator version 0.2*
G04 Scale: 100 percent, Rotated: No, Reflected: No *
G04 Dimensions in millimeters *
G04 leading zeros omitted , absolute positions ,4 integer and 5 decimal *
%FSLAX45Y45*%
%MOMM*%

%AMMACRO1*1,1,$1,$2,$3*1,1,$1,$4,$5*1,1,$1,0-$2,0-$3*1,1,$1,0-$4,0-$5*20,1,$1,$2,$3,$4,$5,0*20,1,$1,$4,$5,0-$2,0-$3,0*20,1,$1,0-$2,0-$3,0-$4,0-$5,0*20,1,$1,0-$4,0-$5,$2,$3,0*4,1,4,$2,$3,$4,$5,0-$2,0-$3,0-$4,0-$5,$2,$3,0*%
%ADD10C,1.9016*%
%ADD11MACRO1,0.1016X-0.7874X0.9X0.7874X0.9*%
%ADD12R,1.8016X1.8016*%
%ADD13MACRO1,0.1016X0.85X0.85X0.85X-0.85*%

%LPD*%
D10*
G01*
X2286005Y6096005D03*
G01*
X2032005Y6096005D03*
D11*
G01*
X1778000Y6096000D03*
D10*
G01*
X2286005Y6604005D03*
G01*
X2032005Y6604005D03*
D11*
G01*
X1778000Y6604000D03*
D10*
G01*
X3556005Y6096005D03*
G01*
X3302005Y6096005D03*
D11*
G01*
X3048000Y6096000D03*
D10*
G01*
X3556005Y6604005D03*
G01*
X3302005Y6604005D03*
D11*
G01*
X3048000Y6604000D03*
D10*
G01*
X4826005Y6604005D03*
G01*
X4572005Y6604005D03*
D11*
G01*
X4318000Y6604000D03*
D10*
G01*
X4826005Y6096005D03*
G01*
X4572005Y6096005D03*
D11*
G01*
X4318000Y6096000D03*
D10*
G01*
X1016005Y6604005D03*
G01*
X762005Y6604005D03*
D11*
G01*
X508000Y6604000D03*
D10*
G01*
X1016005Y6096005D03*
G01*
X762005Y6096005D03*
D11*
G01*
X508000Y6096000D03*
D10*
G01*
X2286005Y2159005D03*
G01*
X2032005Y2159005D03*
D11*
G01*
X1778000Y2159000D03*
D10*
G01*
X3556005Y2159005D03*
G01*
X3302005Y2159005D03*
D11*
G01*
X3048000Y2159000D03*
D10*
G01*
X3556005Y1143005D03*
G01*
X3302005Y1143005D03*
D11*
G01*
X3048000Y1143000D03*
D10*
G01*
X2286005Y1143005D03*
G01*
X2032005Y1143005D03*
D11*
G01*
X1778000Y1143000D03*
D12*
G01*
X5079974Y4978392D03*
G01*
X5079974Y4724392D03*
G01*
X5079974Y4470392D03*
G01*
X5079974Y4216392D03*
G01*
X5079974Y3962392D03*
G01*
X5079974Y3708392D03*
G01*
X5079974Y3454392D03*
G01*
X5079974Y3200392D03*
G01*
X5079974Y2946392D03*
G01*
X5079974Y2692392D03*
G01*
X5079974Y2285992D03*
G01*
X5079974Y2031992D03*
G01*
X5079974Y1777992D03*
G01*
X5079974Y1523992D03*
G01*
X5079974Y1269992D03*
G01*
X5079974Y1015992D03*
G01*
X5079974Y761992D03*
G01*
X5079974Y507992D03*
G01*
X254000Y507992D03*
G01*
X254000Y761992D03*
G01*
X254000Y1015992D03*
G01*
X254000Y1269992D03*
G01*
X254000Y1523992D03*
G01*
X254000Y1777992D03*
G01*
X254000Y2285992D03*
G01*
X254000Y2539992D03*
G01*
X254000Y2793992D03*
G01*
X254000Y3047992D03*
G01*
X254000Y3301992D03*
G01*
X254000Y3555992D03*
G01*
X254000Y3809992D03*
G01*
X254000Y4063992D03*
D13*
G01*
X635000Y4191000D03*
G01*
X635000Y3937000D03*
G01*
X635000Y3683000D03*
G01*
X635000Y3429000D03*
G01*
X635000Y3175000D03*
G01*
X635000Y2921000D03*
G01*
X635000Y2667000D03*
G01*
X635000Y2413000D03*
G01*
X635000Y1905000D03*
G01*
X635000Y1651000D03*
G01*
X635000Y1397000D03*
G01*
X635000Y1143000D03*
G01*
X635000Y889000D03*
G01*
X635000Y635000D03*
G01*
X4699000Y508000D03*
G01*
X4699000Y762000D03*
G01*
X4699000Y1016000D03*
G01*
X4699000Y1270000D03*
G01*
X4699000Y1524000D03*
G01*
X4699000Y1778000D03*
G01*
X4699000Y2032000D03*
G01*
X4699000Y2286000D03*
G01*
X4699000Y2692400D03*
G01*
X4699000Y2946400D03*
G01*
X4699000Y3200400D03*
G01*
X4699000Y3454400D03*
G01*
X4699000Y3708400D03*
G01*
X4699000Y3962400D03*
G01*
X4699000Y4216400D03*
G01*
X4699000Y4470400D03*
G01*
X4699000Y4724400D03*
G01*
X4699000Y4978400D03*
M02*
